<svg width="32" height="32" viewBox="0 0 32 32" fill="none" xmlns="http://www.w3.org/2000/svg">
<path fill-rule="evenodd" clip-rule="evenodd" d="M16.0001 0C7.16461 0 0 7.34466 0 16.405C0 23.6533 4.5845 29.8026 10.9419 31.9718C11.7415 32.1236 12.0351 31.6159 12.0351 31.1826C12.0351 30.7915 12.0202 29.4991 12.0134 28.1283C7.56202 29.1207 6.62276 26.1927 6.62276 26.1927C5.89495 24.2965 4.84626 23.7924 4.84626 23.7924C3.39464 22.7742 4.95568 22.795 4.95568 22.795C6.5624 22.9108 7.40843 24.4856 7.40843 24.4856C8.83545 26.9936 11.1514 26.2685 12.0645 25.8494C12.208 24.789 12.6227 24.0654 13.0803 23.6558C9.5265 23.2408 5.79054 21.8342 5.79054 15.5483C5.79054 13.7573 6.41559 12.2938 7.43917 11.1449C7.27303 10.7317 6.72541 9.0632 7.59415 6.80351C7.59415 6.80351 8.93772 6.36259 11.9953 8.48512C13.2715 8.12152 14.6403 7.93934 16.0001 7.93316C17.3598 7.93934 18.7296 8.12152 20.0083 8.48512C23.0623 6.36259 24.404 6.80351 24.404 6.80351C25.2748 9.0632 24.727 10.7317 24.5608 11.1449C25.5867 12.2938 26.2075 13.7572 26.2075 15.5483C26.2075 21.8491 22.4645 23.2366 18.9017 23.6426C19.4755 24.1518 19.9869 25.1502 19.9869 26.6806C19.9869 28.8756 19.9683 30.6422 19.9683 31.1826C19.9683 31.6192 20.2563 32.1307 21.0674 31.9696C27.4213 29.798 32 23.6509 32 16.405C32 7.34466 24.8364 0 16.0001 0Z" fill="white"/>
<path d="M6.00041 23.3648C5.96552 23.4465 5.84119 23.471 5.72819 23.415C5.61296 23.3613 5.54817 23.2498 5.58555 23.1677C5.61981 23.0835 5.74414 23.06 5.85913 23.1166C5.97462 23.1701 6.0404 23.2827 6.00041 23.3648ZM6.78179 24.0871C6.70604 24.1599 6.55791 24.1261 6.45738 24.0111C6.35347 23.8964 6.33404 23.743 6.41091 23.669C6.48902 23.5964 6.63266 23.6303 6.73682 23.7452C6.84072 23.8612 6.86102 24.0136 6.78179 24.0871ZM7.31787 25.0114C7.22045 25.0814 7.06123 25.0157 6.96293 24.8694C6.86563 24.7231 6.86563 24.5476 6.96505 24.4772C7.06372 24.4069 7.22045 24.4701 7.32011 24.6153C7.41729 24.7642 7.41741 24.9396 7.31787 25.0114ZM8.22433 26.0818C8.13725 26.1812 7.95187 26.1546 7.81608 26.0188C7.67729 25.8861 7.63855 25.6978 7.72588 25.5983C7.81396 25.4986 8.00046 25.5266 8.13725 25.6613C8.27516 25.7937 8.31715 25.9835 8.22433 26.0818ZM9.39591 26.4433C9.35766 26.5721 9.17901 26.6307 8.99911 26.5759C8.81947 26.5195 8.70186 26.3685 8.73811 26.2383C8.77549 26.1085 8.95489 26.0475 9.13615 26.1061C9.31555 26.1622 9.43328 26.3121 9.39591 26.4433ZM10.7294 26.5965C10.7339 26.7323 10.5813 26.8448 10.3924 26.8473C10.2025 26.8515 10.0488 26.7417 10.0469 26.6082C10.0469 26.4711 10.196 26.3596 10.3858 26.3564C10.5747 26.3525 10.7294 26.4616 10.7294 26.5965ZM12.0393 26.5445C12.062 26.6769 11.9307 26.8129 11.7432 26.8491C11.5588 26.8839 11.3881 26.8022 11.3646 26.6709C11.3416 26.5352 11.4754 26.3992 11.6595 26.364C11.8473 26.3302 12.0154 26.4098 12.0393 26.5445Z" fill="white"/>
</svg>
