<svg width="32" height="32" viewBox="0 0 32 32" fill="none" xmlns="http://www.w3.org/2000/svg">
<g clip-path="url(#clip0_14_82)">
<path d="M32 16.3545C32 15.0427 31.8911 14.0855 31.6553 13.0928H16.3265V19.0135H25.3242C25.1429 20.4849 24.1633 22.7008 21.9864 24.1898L21.9558 24.388L26.8025 28.0571L27.1383 28.0898C30.2222 25.3066 32 21.2117 32 16.3545Z" fill="#4285F4"/>
<path d="M16.3265 31.9543C20.7346 31.9543 24.4353 30.5361 27.1383 28.0898L21.9864 24.1898C20.6077 25.1293 18.7573 25.7852 16.3265 25.7852C12.0091 25.7852 8.34473 23.0022 7.03848 19.1554L6.84701 19.1713L1.80736 22.9826L1.74146 23.1616C4.42623 28.3733 9.94099 31.9543 16.3265 31.9543Z" fill="#34A853"/>
<path d="M7.03848 19.1554C6.69381 18.1627 6.49434 17.099 6.49434 16C6.49434 14.9009 6.69381 13.8373 7.02035 12.8446L7.01122 12.6332L1.90841 8.76063L1.74145 8.83823C0.634928 11.0009 0 13.4296 0 16C0 18.5704 0.634928 20.9989 1.74145 23.1616L7.03848 19.1554Z" fill="#FBBC05"/>
<path d="M16.3265 6.21467C19.3922 6.21467 21.4602 7.50873 22.6394 8.59015L27.2471 4.19383C24.4173 1.62342 20.7346 0.0457153 16.3265 0.0457153C9.94099 0.0457153 4.42623 3.62654 1.74146 8.83823L7.02035 12.8446C8.34473 8.99784 12.0091 6.21467 16.3265 6.21467Z" fill="#EB4335"/>
</g>
<defs>
<clipPath id="clip0_14_82">
<rect width="32" height="32" fill="white"/>
</clipPath>
</defs>
</svg>
