<svg width="441" height="70" viewBox="0 0 441 70" fill="none" xmlns="http://www.w3.org/2000/svg">
<path d="M14.472 69C13.384 69 12.52 68.68 11.88 68.04C11.24 67.4 10.856 66.664 10.728 65.832L0.264 4.488C0.2 4.36 0.168 4.232 0.168 4.10399C0.168 3.976 0.168 3.88 0.168 3.816C0.168 3.304 0.36 2.856 0.744 2.472C1.192 2.024 1.672 1.8 2.184 1.8H14.088C15.88 1.8 16.872 2.504 17.064 3.912L23.304 41.448L30.216 19.272C30.408 18.76 30.728 18.216 31.176 17.64C31.624 17 32.36 16.68 33.384 16.68H40.296C41.384 16.68 42.152 17 42.6 17.64C43.048 18.216 43.336 18.76 43.464 19.272L50.376 41.352L56.616 3.912C56.808 2.504 57.8 1.8 59.592 1.8H71.496C72.072 1.8 72.552 2.024 72.936 2.472C73.32 2.856 73.512 3.304 73.512 3.816C73.512 3.88 73.512 3.976 73.512 4.10399C73.512 4.232 73.512 4.36 73.512 4.488L63.048 65.832C62.92 66.664 62.536 67.4 61.896 68.04C61.256 68.68 60.392 69 59.304 69H50.184C49.096 69 48.264 68.712 47.688 68.136C47.112 67.56 46.728 67.016 46.536 66.504L36.84 39.048L27.144 66.504C26.952 67.016 26.568 67.56 25.992 68.136C25.48 68.712 24.68 69 23.592 69H14.472ZM103.61 69.96C96.0583 69.96 90.0423 67.912 85.5623 63.816C81.0823 59.72 78.7463 53.64 78.5543 45.576C78.5543 45.128 78.5543 44.552 78.5543 43.848C78.5543 43.144 78.5543 42.6 78.5543 42.216C78.7463 37.16 79.8663 32.84 81.9143 29.256C84.0263 25.608 86.9063 22.856 90.5543 21C94.2663 19.08 98.5863 18.12 103.514 18.12C109.146 18.12 113.786 19.24 117.434 21.48C121.146 23.72 123.93 26.76 125.786 30.6C127.642 34.44 128.57 38.824 128.57 43.752V46.056C128.57 46.76 128.314 47.336 127.802 47.784C127.354 48.232 126.81 48.456 126.17 48.456H95.4503C95.4503 48.52 95.4503 48.616 95.4503 48.744C95.4503 48.872 95.4503 49 95.4503 49.128C95.5143 50.984 95.8343 52.68 96.4103 54.216C96.9863 55.752 97.8823 56.968 99.0983 57.864C100.314 58.76 101.786 59.208 103.514 59.208C104.794 59.208 105.85 59.016 106.682 58.632C107.578 58.184 108.314 57.704 108.89 57.192C109.466 56.616 109.914 56.136 110.234 55.752C110.81 55.112 111.258 54.728 111.578 54.6C111.962 54.408 112.538 54.312 113.306 54.312H125.21C125.85 54.312 126.362 54.504 126.746 54.888C127.194 55.208 127.386 55.688 127.322 56.328C127.258 57.416 126.714 58.728 125.69 60.264C124.666 61.8 123.162 63.336 121.178 64.872C119.258 66.344 116.826 67.56 113.882 68.52C110.938 69.48 107.514 69.96 103.61 69.96ZM95.4503 38.952H111.674V38.76C111.674 36.712 111.354 34.92 110.714 33.384C110.138 31.848 109.21 30.664 107.93 29.832C106.714 29 105.242 28.584 103.514 28.584C101.786 28.584 100.314 29 99.0983 29.832C97.9463 30.664 97.0503 31.848 96.4103 33.384C95.7703 34.92 95.4503 36.712 95.4503 38.76V38.952ZM141.026 69C140.322 69 139.746 68.776 139.298 68.328C138.85 67.88 138.626 67.304 138.626 66.6V4.2C138.626 3.496 138.85 2.92 139.298 2.472C139.746 2.024 140.322 1.8 141.026 1.8H170.306C175.81 1.8 180.322 2.568 183.842 4.10399C187.362 5.64 189.954 7.848 191.618 10.728C193.346 13.544 194.21 16.904 194.21 20.808C194.21 23.112 193.762 25.16 192.866 26.952C192.034 28.68 190.978 30.12 189.698 31.272C188.482 32.424 187.33 33.256 186.242 33.768C188.674 34.92 190.818 36.808 192.674 39.432C194.594 42.056 195.554 45.128 195.554 48.648C195.554 52.872 194.594 56.52 192.674 59.592C190.818 62.6 188.066 64.936 184.418 66.6C180.834 68.2 176.418 69 171.17 69H141.026ZM155.81 56.52H169.25C172.002 56.52 174.082 55.72 175.49 54.12C176.898 52.52 177.602 50.696 177.602 48.648C177.602 46.408 176.866 44.52 175.394 42.984C173.986 41.448 171.938 40.68 169.25 40.68H155.81V56.52ZM155.81 28.488H168.386C171.01 28.488 172.962 27.816 174.242 26.472C175.586 25.128 176.258 23.4 176.258 21.288C176.258 19.24 175.586 17.576 174.242 16.296C172.962 14.952 171.01 14.28 168.386 14.28H155.81V28.488ZM228.78 69.96C223.404 69.96 218.86 69.096 215.148 67.368C211.5 65.64 208.684 63.176 206.7 59.976C204.78 56.712 203.692 52.84 203.436 48.36C203.372 47.08 203.34 45.64 203.34 44.04C203.34 42.376 203.372 40.936 203.436 39.72C203.692 35.176 204.844 31.304 206.892 28.104C208.94 24.904 211.788 22.44 215.436 20.712C219.148 18.984 223.596 18.12 228.78 18.12C234.028 18.12 238.476 18.984 242.124 20.712C245.836 22.44 248.716 24.904 250.764 28.104C252.812 31.304 253.964 35.176 254.22 39.72C254.284 40.936 254.316 42.376 254.316 44.04C254.316 45.64 254.284 47.08 254.22 48.36C253.964 52.84 252.844 56.712 250.86 59.976C248.94 63.176 246.124 65.64 242.412 67.368C238.764 69.096 234.22 69.96 228.78 69.96ZM228.78 58.248C231.66 58.248 233.74 57.384 235.02 55.656C236.364 53.928 237.132 51.336 237.324 47.88C237.388 46.92 237.42 45.64 237.42 44.04C237.42 42.44 237.388 41.16 237.324 40.2C237.132 36.808 236.364 34.248 235.02 32.52C233.74 30.728 231.66 29.832 228.78 29.832C225.964 29.832 223.884 30.728 222.54 32.52C221.196 34.248 220.46 36.808 220.332 40.2C220.268 41.16 220.236 42.44 220.236 44.04C220.236 45.64 220.268 46.92 220.332 47.88C220.46 51.336 221.196 53.928 222.54 55.656C223.884 57.384 225.964 58.248 228.78 58.248ZM278.734 69.96C275.278 69.96 272.174 69.32 269.422 68.04C266.734 66.696 264.59 64.904 262.99 62.664C261.39 60.424 260.59 57.896 260.59 55.08C260.59 50.536 262.446 46.952 266.158 44.328C269.87 41.64 274.798 39.816 280.942 38.856L292.942 37.032V35.688C292.942 33.384 292.462 31.624 291.502 30.408C290.542 29.192 288.782 28.584 286.222 28.584C284.43 28.584 282.958 28.936 281.806 29.64C280.718 30.344 279.854 31.304 279.214 32.52C278.638 33.352 277.838 33.768 276.814 33.768H266.062C265.358 33.768 264.814 33.576 264.43 33.192C264.046 32.744 263.886 32.232 263.95 31.656C263.95 30.504 264.366 29.192 265.198 27.72C266.094 26.184 267.438 24.68 269.23 23.208C271.022 21.736 273.326 20.52 276.142 19.56C278.958 18.6 282.35 18.12 286.318 18.12C290.478 18.12 294.03 18.6 296.974 19.56C299.918 20.52 302.286 21.864 304.078 23.592C305.934 25.32 307.31 27.368 308.206 29.736C309.102 32.04 309.55 34.6 309.55 37.416V66.6C309.55 67.304 309.294 67.88 308.782 68.328C308.334 68.776 307.79 69 307.15 69H296.014C295.31 69 294.734 68.776 294.286 68.328C293.838 67.88 293.614 67.304 293.614 66.6V63.24C292.782 64.456 291.662 65.576 290.254 66.6C288.846 67.624 287.182 68.424 285.262 69C283.406 69.64 281.23 69.96 278.734 69.96ZM283.246 59.016C285.102 59.016 286.766 58.632 288.238 57.864C289.774 57.032 290.958 55.784 291.79 54.12C292.686 52.392 293.134 50.248 293.134 47.688V46.344L284.974 47.784C281.966 48.296 279.758 49.096 278.35 50.184C277.006 51.208 276.334 52.424 276.334 53.832C276.334 54.92 276.654 55.848 277.294 56.616C277.934 57.384 278.766 57.992 279.79 58.44C280.814 58.824 281.966 59.016 283.246 59.016ZM322.783 69C322.079 69 321.503 68.776 321.055 68.328C320.607 67.88 320.383 67.304 320.383 66.6V21.48C320.383 20.84 320.607 20.296 321.055 19.848C321.503 19.336 322.079 19.08 322.783 19.08H333.823C334.527 19.08 335.103 19.336 335.551 19.848C335.999 20.296 336.223 20.84 336.223 21.48V25.32C337.951 23.336 339.999 21.8 342.367 20.712C344.799 19.624 347.519 19.08 350.527 19.08H354.751C355.391 19.08 355.935 19.304 356.383 19.752C356.895 20.2 357.151 20.776 357.151 21.48V31.368C357.151 32.008 356.895 32.584 356.383 33.096C355.935 33.544 355.391 33.768 354.751 33.768H345.439C342.815 33.768 340.767 34.504 339.295 35.976C337.887 37.384 337.183 39.4 337.183 42.024V66.6C337.183 67.304 336.927 67.88 336.415 68.328C335.967 68.776 335.391 69 334.687 69H322.783ZM382.132 69.96C379.06 69.96 376.276 69.48 373.78 68.52C371.348 67.496 369.236 66.024 367.444 64.104C365.716 62.12 364.372 59.752 363.412 57C362.452 54.184 361.908 50.984 361.78 47.4C361.716 46.12 361.684 45 361.684 44.04C361.684 43.016 361.716 41.896 361.78 40.68C361.908 37.224 362.452 34.12 363.412 31.368C364.372 28.616 365.716 26.248 367.444 24.264C369.172 22.28 371.284 20.776 373.78 19.752C376.276 18.664 379.06 18.12 382.132 18.12C385.332 18.12 388.084 18.664 390.388 19.752C392.692 20.776 394.644 22.12 396.244 23.784V3.23999C396.244 2.536 396.468 1.96 396.916 1.512C397.364 1.064 397.94 0.839996 398.644 0.839996H410.356C410.996 0.839996 411.54 1.064 411.988 1.512C412.5 1.96 412.756 2.536 412.756 3.23999V66.6C412.756 67.304 412.5 67.88 411.988 68.328C411.54 68.776 410.996 69 410.356 69H399.508C398.804 69 398.228 68.776 397.78 68.328C397.332 67.88 397.108 67.304 397.108 66.6V63.528C395.572 65.384 393.588 66.92 391.156 68.136C388.724 69.352 385.716 69.96 382.132 69.96ZM387.316 57.096C389.492 57.096 391.188 56.648 392.404 55.752C393.684 54.792 394.612 53.576 395.188 52.104C395.828 50.632 396.18 49.032 396.244 47.304C396.308 46.024 396.34 44.808 396.34 43.656C396.34 42.504 396.308 41.32 396.244 40.104C396.18 38.504 395.828 37.032 395.188 35.688C394.548 34.28 393.588 33.16 392.308 32.328C391.028 31.432 389.364 30.984 387.316 30.984C385.204 30.984 383.508 31.432 382.228 32.328C381.012 33.224 380.148 34.44 379.636 35.976C379.124 37.512 378.804 39.208 378.676 41.064C378.484 43.048 378.484 45.032 378.676 47.016C378.804 48.872 379.124 50.568 379.636 52.104C380.148 53.64 381.012 54.856 382.228 55.752C383.508 56.648 385.204 57.096 387.316 57.096ZM426.854 47.784C426.15 47.784 425.574 47.56 425.126 47.112C424.678 46.6 424.454 46.024 424.454 45.384V4.2C424.454 3.496 424.678 2.92 425.126 2.472C425.574 2.024 426.15 1.8 426.854 1.8H437.894C438.534 1.8 439.078 2.024 439.526 2.472C440.038 2.92 440.294 3.496 440.294 4.2V45.384C440.294 46.024 440.038 46.6 439.526 47.112C439.078 47.56 438.534 47.784 437.894 47.784H426.854ZM426.47 69C425.766 69 425.19 68.776 424.742 68.328C424.294 67.88 424.07 67.304 424.07 66.6V54.792C424.07 54.088 424.294 53.512 424.742 53.064C425.19 52.552 425.766 52.296 426.47 52.296H438.278C438.918 52.296 439.462 52.552 439.91 53.064C440.422 53.512 440.678 54.088 440.678 54.792V66.6C440.678 67.304 440.422 67.88 439.91 68.328C439.462 68.776 438.918 69 438.278 69H426.47Z" fill="url(#paint0_linear_14_373)"/>
<defs>
<linearGradient id="paint0_linear_14_373" x1="-3" y1="36" x2="447" y2="36" gradientUnits="userSpaceOnUse">
<stop offset="0.0330034" stop-color="#38ABF8"/>
<stop offset="1" stop-color="#2DD4AD"/>
</linearGradient>
</defs>
</svg>
